mtllib accessible.mtl
# vertices
v 80 32 -64
v 80 32 64
v 80 48 64
v 80 48 -64
v 128 48 64
v 128 32 64
v 128 32 -64
v 128 48 -64
v 112 48 -64
v 112 48 64
v 112 64 64
v 112 64 -64
v 176 64 64
v 176 48 64
v 176 48 -64
v 176 64 -64
v 48 0 64
v 48 0 176
v 48 16 176
v 48 16 64
v 128 64 64
v 128 64 176
v 128 0 176
v 128 0 64
v 48 16 -64
v 48 16 64
v 48 32 64
v 48 32 -64
v 96 32 64
v 96 16 64
v 96 16 -64
v 96 32 -64
v -48 -16 64
v -48 -16 192
v -48 16 192
v -48 16 64
v 64 16 192
v 64 -16 192
v 64 -16 64
v 64 16 64
v -48 -16 -64
v -48 -16 64
v -48 16 64
v -48 16 -64
v 64 16 64
v 64 -16 64
v 64 -16 -64
v 64 16 -64
v 128 48 64
v 128 48 176
v 128 64 176
v 128 64 64
v 176 64 176
v 176 48 176
v 176 48 64
v 176 64 64

# texture coordinates
vt 1 0.5
vt -1 0.5
vt -1 0.75
vt 1 0.75
vt 2 0.75
vt 1.25 0.75
vt 1.25 0.5
vt 2 0.5
vt 2 -1
vt 1.25 -1
vt 1.25 1
vt 2 1
vt -1 1
vt 1 1
vt 2.75 1
vt 1.75 1
vt 1.75 0.75
vt 2.75 0.75
vt 2.75 -1
vt 1.75 -1
vt -1 -0
vt -2.75 -0
vt -2.75 0.25
vt -1 0.25
vt 0.75 -1
vt 0.75 -2.75
vt 2 -2.75
vt 0.75 0.25
vt 0.75 -0
vt 2 -0
vt -2.5 -0.25
vt -0.75 -0.25
vt -0.75 0.75
vt -2.5 0.75
vt 1 0.25
vt 1.5 0.5
vt 0.75 0.5
vt 1.5 0.25
vt 1.5 -1
vt 0.75 1
vt 1.5 1
vt -1 -0.25
vt -3 -0.25
vt -3 0.25
vt -0.75 0.25
vt 1 -0.25
vt 1 -3
vt -0.75 -3
vt -0.75 -1
vt 1 -1
vt -0.75 1
vt -2.75 0.75
vt -2.75 1
vt 2.75 -2.75

# normals
vn -1 0 -0
vn 0 0 1
vn 0 -1 -0
vn 0 1 -0
vn 0 0 -1
vn 1 0 -0
vn -0.5144957554275265 0.8574929257125441 -0

o entity1_brush0
usemtl wmet3_1
f  1/1/1  2/2/1  3/3/1  4/4/1
usemtl wmet3_1
f  5/5/2  3/6/2  2/7/2  6/8/2
usemtl wmet3_1
f  6/9/3  2/10/3  1/11/3  7/12/3
usemtl wmet3_1
f  8/12/4  4/11/4  3/10/4  5/9/4
usemtl wmet3_1
f  7/8/5  1/7/5  4/6/5  8/5/5
usemtl wmet3_1
f  8/4/6  5/3/6  6/2/6  7/1/6

o entity1_brush1
usemtl wmet3_1
f  9/4/1  10/3/1  11/13/1  12/14/1
usemtl wmet3_1
f  13/15/2  11/16/2  10/17/2  14/18/2
usemtl wmet3_1
f  14/19/3  10/20/3  9/16/3  15/15/3
usemtl wmet3_1
f  16/15/4  12/16/4  11/20/4  13/19/4
usemtl wmet3_1
f  15/18/5  9/17/5  12/16/5  16/15/5
usemtl wmet3_1
f  16/14/6  13/13/6  14/3/6  15/4/6

o entity1_brush2
usemtl wmet3_1
f  17/21/1  18/22/1  19/23/1  20/24/1
usemtl wmet3_1
f  21/9/7  20/25/7  19/26/7  22/27/7
usemtl wmet3_1
f  22/12/2  19/28/2  18/29/2  23/30/2
usemtl wmet3_1
f  23/27/3  18/26/3  17/25/3  24/9/3
usemtl wmet3_1
f  24/30/5  17/29/5  20/28/5  21/12/5
usemtl wmet3_1
f  23/31/6  24/32/6  21/33/6  22/34/6

o entity1_brush3
usemtl wmet3_1
f  25/35/1  26/24/1  27/2/1  28/1/1
usemtl wmet3_1
f  29/36/2  27/37/2  26/28/2  30/38/2
usemtl wmet3_1
f  30/39/3  26/25/3  25/40/3  31/41/3
usemtl wmet3_1
f  32/41/4  28/40/4  27/25/4  29/39/4
usemtl wmet3_1
f  31/38/5  25/28/5  28/37/5  32/36/5
usemtl wmet3_1
f  32/1/6  29/2/6  30/24/6  31/35/6

o entity1_brush4
usemtl wmet3_1
f  33/42/1  34/43/1  35/44/1  36/24/1
usemtl wmet3_1
f  37/35/2  35/45/2  34/32/2  38/46/2
usemtl wmet3_1
f  38/47/3  34/48/3  33/49/3  39/50/3
usemtl wmet3_1
f  40/50/4  36/49/4  35/48/4  37/47/4
usemtl wmet3_1
f  39/46/5  33/32/5  36/45/5  40/35/5
usemtl wmet3_1
f  40/24/6  37/44/6  38/43/6  39/42/6

o entity1_brush5
usemtl wmet3_1
f  41/46/1  42/42/1  43/24/1  44/35/1
usemtl wmet3_1
f  45/35/2  43/45/2  42/32/2  46/46/2
usemtl wmet3_1
f  46/50/3  42/49/3  41/51/3  47/14/3
usemtl wmet3_1
f  48/14/4  44/51/4  43/49/4  45/50/4
usemtl wmet3_1
f  47/46/5  41/32/5  44/45/5  48/35/5
usemtl wmet3_1
f  48/35/6  45/24/6  46/42/6  47/46/6

o entity1_brush6
usemtl wmet3_1
f  49/3/1  50/52/1  51/53/1  52/13/1
usemtl wmet3_1
f  53/15/2  51/12/2  50/5/2  54/18/2
usemtl wmet3_1
f  54/54/3  50/27/3  49/9/3  55/19/3
usemtl wmet3_1
f  56/19/4  52/9/4  51/27/4  53/54/4
usemtl wmet3_1
f  55/18/5  49/5/5  52/12/5  56/15/5
usemtl wmet3_1
f  56/13/6  53/53/6  54/52/6  55/3/6

