# Blender 4.3.2
# www.blender.org
mtllib shippingCrate_x128.mtl
o Cube
v 3.000000 2.000000 -1.000000
v 3.000000 0.000000 -1.000000
v 3.000000 2.000000 1.000000
v 3.000000 0.000000 1.000000
v -3.000000 2.000000 -1.000000
v -3.000000 0.000000 -1.000000
v -3.000000 2.000000 1.000000
v -3.000000 0.000000 1.000000
vn -0.0000 1.0000 -0.0000
vn -0.0000 -0.0000 1.0000
vn -1.0000 -0.0000 -0.0000
vn -0.0000 -1.0000 -0.0000
vn 1.0000 -0.0000 -0.0000
vn -0.0000 -0.0000 -1.0000
vt 0.010726 0.719190
vt 0.260727 0.719190
vt 0.260727 0.969190
vt 0.010726 0.969190
vt 0.012171 0.975283
vt 0.011372 0.558659
vt 0.672231 0.559779
vt 0.667190 0.975660
vt 0.292107 0.018333
vt 0.293500 0.527957
vt 0.005489 0.526997
vt 0.004096 0.017374
vt 0.416833 0.718421
vt 0.666833 0.718421
vt 0.666833 0.968421
vt 0.416833 0.968421
vt 0.290448 0.015630
vt 0.294670 0.532191
vt 0.007676 0.525270
vt 0.008204 0.021013
vt 0.969428 0.060546
vt 0.966790 0.478723
vt 0.315544 0.477954
vt 0.310794 0.067468
s 0
usemtl Material
f 1/1/1 5/2/1 7/3/1 3/4/1
f 4/5/2 3/6/2 7/7/2 8/8/2
f 8/9/3 7/10/3 5/11/3 6/12/3
f 6/13/4 2/14/4 4/15/4 8/16/4
f 2/17/5 1/18/5 3/19/5 4/20/5
f 6/21/6 5/22/6 1/23/6 2/24/6
