# Blender 4.3.0
# www.blender.org
mtllib metalCratex64.mtl
o Cube
v 1.000000 2.011265 -1.000000
v 1.000000 0.011265 -1.000000
v 1.000000 2.011265 1.000000
v 1.000000 0.011265 1.000000
v -1.000000 2.011265 -1.000000
v -1.000000 0.011265 -1.000000
v -1.000000 2.011265 1.000000
v -1.000000 0.011265 1.000000
vn -0.0000 1.0000 -0.0000
vn -0.0000 -0.0000 1.0000
vn -1.0000 -0.0000 -0.0000
vn -0.0000 -1.0000 -0.0000
vn 1.0000 -0.0000 -0.0000
vn -0.0000 -0.0000 -1.0000
vt 0.008588 -0.000217
vt 0.008588 -0.994451
vt 1.002822 -0.994451
vt 1.002822 -0.000217
vt 1.002822 0.994017
vt 1.997056 -0.000217
vt 1.997056 0.994017
vt -1.979880 0.994016
vt -1.979880 -0.000217
vt -0.985646 -0.000217
vt -0.985646 0.994016
vt 0.008588 1.988250
vt 0.008588 0.994017
vt 1.002822 1.988251
s 0
usemtl Material
f 1/1/1 5/2/1 7/3/1 3/4/1
f 4/5/2 3/4/2 7/6/2 8/7/2
f 8/8/3 7/9/3 5/10/3 6/11/3
f 6/12/4 2/13/4 4/5/4 8/14/4
f 2/13/5 1/1/5 3/4/5 4/5/5
f 6/11/6 5/10/6 1/1/6 2/13/6
