mtllib jumps1.mtl
# vertices
v 5184 -368 -2112
v 5184 -368 -1600
v 5184 16 -1600
v 5184 16 -2112
v 5696 16 -1600
v 5696 -368 -1600
v 5696 -368 -2112
v 5696 16 -2112
v 4672 -368 -2112
v 4672 -368 -1600
v 4672 16 -1600
v 4672 16 -2112
v 5184 16 -1600
v 5184 -368 -1600
v 5184 -368 -2112
v 5184 16 -2112
v 4160 -368 -2112
v 4160 -368 -1600
v 4160 16 -1600
v 4160 16 -2112
v 4672 16 -1600
v 4672 -368 -1600
v 4672 -368 -2112
v 4672 16 -2112
v 3648 -368 -2112
v 3648 -368 -1600
v 3648 16 -1600
v 3648 16 -2112
v 4160 16 -1600
v 4160 -368 -1600
v 4160 -368 -2112
v 4160 16 -2112
v 3648 16 -2112
v 3648 16 -1600
v 3648 176 -1600
v 3648 176 -2112
v 3664 176 -1600
v 3664 16 -1600
v 3664 16 -2112
v 3664 176 -2112
v 3136 -368 -2112
v 3136 -368 -1600
v 3136 16 -1600
v 3136 16 -2112
v 3648 16 -1600
v 3648 -368 -1600
v 3648 -368 -2112
v 3648 16 -2112
v 2624 -368 -2112
v 2624 -368 -1600
v 2624 16 -1600
v 2624 16 -2112
v 3136 16 -1600
v 3136 -368 -1600
v 3136 -368 -2112
v 3136 16 -2112
v 2624 16 -2112
v 2624 16 -1600
v 2624 112 -1600
v 2624 112 -2112
v 2640 112 -1600
v 2640 16 -1600
v 2640 16 -2112
v 2640 112 -2112
v 2112 -368 -2112
v 2112 -368 -1600
v 2112 16 -1600
v 2112 16 -2112
v 2624 16 -1600
v 2624 -368 -1600
v 2624 -368 -2112
v 2624 16 -2112
v 1600 -368 -2112
v 1600 -368 -1600
v 1600 16 -1600
v 1600 16 -2112
v 2112 16 -1600
v 2112 -368 -1600
v 2112 -368 -2112
v 2112 16 -2112
v 1600 16 -2112
v 1600 16 -1600
v 1600 64 -1600
v 1600 64 -2112
v 1616 64 -1600
v 1616 16 -1600
v 1616 16 -2112
v 1616 64 -2112
v 1088 -368 -2112
v 1088 -368 -1600
v 1088 16 -1600
v 1088 16 -2112
v 1600 16 -1600
v 1600 -368 -1600
v 1600 -368 -2112
v 1600 16 -2112
v 2112 16 -2112
v 2112 16 -1600
v 2112 96 -1600
v 2112 96 -2112
v 2128 96 -1600
v 2128 16 -1600
v 2128 16 -2112
v 2128 96 -2112
v 3136 16 -2112
v 3136 16 -1600
v 3136 144 -1600
v 3136 144 -2112
v 3152 144 -1600
v 3152 16 -1600
v 3152 16 -2112
v 3152 144 -2112
v 4160 16 -2112
v 4160 16 -1600
v 4160 208 -1600
v 4160 208 -2112
v 4176 208 -1600
v 4176 16 -1600
v 4176 16 -2112
v 4176 208 -2112
v 4672 16 -2112
v 4672 16 -1600
v 4672 240 -1600
v 4672 240 -2112
v 4688 240 -1600
v 4688 16 -1600
v 4688 16 -2112
v 4688 240 -2112
v 5184 16 -2112
v 5184 16 -1600
v 5184 272 -1600
v 5184 272 -2112
v 5200 272 -1600
v 5200 16 -1600
v 5200 16 -2112
v 5200 272 -2112

# texture coordinates
vt 2112 -368
vt 1600 -368
vt 1600 16
vt 2112 16
vt -5696 16
vt -5184 16
vt -5184 -368
vt -5696 -368
vt 1600 -5696
vt 1600 -5184
vt 2112 -5184
vt 2112 -5696
vt -4672 16
vt -4672 -368
vt 1600 -4672
vt 2112 -4672
vt -4160 16
vt -4160 -368
vt 1600 -4160
vt 2112 -4160
vt -3648 16
vt -3648 -368
vt 1600 -3648
vt 2112 -3648
vt 1600 176
vt 2112 176
vt 3664 176
vt 3648 176
vt 3648 16
vt 3664 16
vt 3664 1600
vt 3648 1600
vt 3648 2112
vt 3664 2112
vt -3136 16
vt -3136 -368
vt 1600 -3136
vt 2112 -3136
vt -2624 16
vt -2624 -368
vt 1600 -2624
vt 2112 -2624
vt 1600 112
vt 2112 112
vt 2640 112
vt 2624 112
vt 2624 16
vt 2640 16
vt 2640 1600
vt 2624 1600
vt 2624 2112
vt 2640 2112
vt -2112 16
vt -2112 -368
vt 1600 -2112
vt 2112 -2112
vt -1600 16
vt -1600 -368
vt 1600 -1600
vt 2112 -1600
vt 1600 64
vt 2112 64
vt 1616 64
vt 1616 16
vt 1616 1600
vt 1600 1600
vt 1600 2112
vt 1616 2112
vt -1088 16
vt -1088 -368
vt 1600 -1088
vt 2112 -1088
vt 1600 96
vt 2112 96
vt 2128 96
vt 2128 16
vt 2128 1600
vt 2112 1600
vt 2112 2112
vt 2128 2112
vt 1600 144
vt 2112 144
vt 3152 144
vt 3136 144
vt 3136 16
vt 3152 16
vt 3152 1600
vt 3136 1600
vt 3136 2112
vt 3152 2112
vt 1600 208
vt 2112 208
vt 4176 208
vt 4160 208
vt 4160 16
vt 4176 16
vt 4176 1600
vt 4160 1600
vt 4160 2112
vt 4176 2112
vt 1600 240
vt 2112 240
vt 4688 240
vt 4672 240
vt 4672 16
vt 4688 16
vt 4688 1600
vt 4672 1600
vt 4672 2112
vt 4688 2112
vt 1600 272
vt 2112 272
vt 5200 272
vt 5184 272
vt 5184 16
vt 5200 16
vt 5200 1600
vt 5184 1600
vt 5184 2112
vt 5200 2112

# normals
vn -1 0 -0
vn 0 0 1
vn 0 -1 -0
vn 0 1 0
vn 0 -0 -1
vn 1 0 -0

o entity1_brush0
usemtl __TB_empty
f  1/1/1  2/2/1  3/3/1  4/4/1
usemtl __TB_empty
f  5/5/2  3/6/2  2/7/2  6/8/2
usemtl __TB_empty
f  6/9/3  2/10/3  1/11/3  7/12/3
usemtl __TB_empty
f  8/12/4  4/11/4  3/10/4  5/9/4
usemtl __TB_empty
f  7/8/5  1/7/5  4/6/5  8/5/5
usemtl __TB_empty
f  8/4/6  5/3/6  6/2/6  7/1/6

o entity1_brush1
usemtl __TB_empty
f  9/1/1  10/2/1  11/3/1  12/4/1
usemtl __TB_empty
f  13/6/2  11/13/2  10/14/2  14/7/2
usemtl __TB_empty
f  14/10/3  10/15/3  9/16/3  15/11/3
usemtl __TB_empty
f  16/11/4  12/16/4  11/15/4  13/10/4
usemtl __TB_empty
f  15/7/5  9/14/5  12/13/5  16/6/5
usemtl __TB_empty
f  16/4/6  13/3/6  14/2/6  15/1/6

o entity1_brush2
usemtl __TB_empty
f  17/1/1  18/2/1  19/3/1  20/4/1
usemtl __TB_empty
f  21/13/2  19/17/2  18/18/2  22/14/2
usemtl __TB_empty
f  22/15/3  18/19/3  17/20/3  23/16/3
usemtl __TB_empty
f  24/16/4  20/20/4  19/19/4  21/15/4
usemtl __TB_empty
f  23/14/5  17/18/5  20/17/5  24/13/5
usemtl __TB_empty
f  24/4/6  21/3/6  22/2/6  23/1/6

o entity1_brush3
usemtl __TB_empty
f  25/1/1  26/2/1  27/3/1  28/4/1
usemtl __TB_empty
f  29/17/2  27/21/2  26/22/2  30/18/2
usemtl __TB_empty
f  30/19/3  26/23/3  25/24/3  31/20/3
usemtl __TB_empty
f  32/20/4  28/24/4  27/23/4  29/19/4
usemtl __TB_empty
f  31/18/5  25/22/5  28/21/5  32/17/5
usemtl __TB_empty
f  32/4/6  29/3/6  30/2/6  31/1/6

o entity1_brush4
usemtl __TB_empty
f  33/4/1  34/3/1  35/25/1  36/26/1
usemtl __TB_empty
f  37/27/2  35/28/2  34/29/2  38/30/2
usemtl __TB_empty
f  38/31/3  34/32/3  33/33/3  39/34/3
usemtl __TB_empty
f  40/34/4  36/33/4  35/32/4  37/31/4
usemtl __TB_empty
f  39/30/5  33/29/5  36/28/5  40/27/5
usemtl __TB_empty
f  40/26/6  37/25/6  38/3/6  39/4/6

o entity1_brush5
usemtl __TB_empty
f  41/1/1  42/2/1  43/3/1  44/4/1
usemtl __TB_empty
f  45/21/2  43/35/2  42/36/2  46/22/2
usemtl __TB_empty
f  46/23/3  42/37/3  41/38/3  47/24/3
usemtl __TB_empty
f  48/24/4  44/38/4  43/37/4  45/23/4
usemtl __TB_empty
f  47/22/5  41/36/5  44/35/5  48/21/5
usemtl __TB_empty
f  48/4/6  45/3/6  46/2/6  47/1/6

o entity1_brush6
usemtl __TB_empty
f  49/1/1  50/2/1  51/3/1  52/4/1
usemtl __TB_empty
f  53/35/2  51/39/2  50/40/2  54/36/2
usemtl __TB_empty
f  54/37/3  50/41/3  49/42/3  55/38/3
usemtl __TB_empty
f  56/38/4  52/42/4  51/41/4  53/37/4
usemtl __TB_empty
f  55/36/5  49/40/5  52/39/5  56/35/5
usemtl __TB_empty
f  56/4/6  53/3/6  54/2/6  55/1/6

o entity1_brush7
usemtl __TB_empty
f  57/4/1  58/3/1  59/43/1  60/44/1
usemtl __TB_empty
f  61/45/2  59/46/2  58/47/2  62/48/2
usemtl __TB_empty
f  62/49/3  58/50/3  57/51/3  63/52/3
usemtl __TB_empty
f  64/52/4  60/51/4  59/50/4  61/49/4
usemtl __TB_empty
f  63/48/5  57/47/5  60/46/5  64/45/5
usemtl __TB_empty
f  64/44/6  61/43/6  62/3/6  63/4/6

o entity1_brush8
usemtl __TB_empty
f  65/1/1  66/2/1  67/3/1  68/4/1
usemtl __TB_empty
f  69/39/2  67/53/2  66/54/2  70/40/2
usemtl __TB_empty
f  70/41/3  66/55/3  65/56/3  71/42/3
usemtl __TB_empty
f  72/42/4  68/56/4  67/55/4  69/41/4
usemtl __TB_empty
f  71/40/5  65/54/5  68/53/5  72/39/5
usemtl __TB_empty
f  72/4/6  69/3/6  70/2/6  71/1/6

o entity1_brush9
usemtl __TB_empty
f  73/1/1  74/2/1  75/3/1  76/4/1
usemtl __TB_empty
f  77/53/2  75/57/2  74/58/2  78/54/2
usemtl __TB_empty
f  78/55/3  74/59/3  73/60/3  79/56/3
usemtl __TB_empty
f  80/56/4  76/60/4  75/59/4  77/55/4
usemtl __TB_empty
f  79/54/5  73/58/5  76/57/5  80/53/5
usemtl __TB_empty
f  80/4/6  77/3/6  78/2/6  79/1/6

o entity1_brush10
usemtl __TB_empty
f  81/4/1  82/3/1  83/61/1  84/62/1
usemtl __TB_empty
f  85/63/2  83/61/2  82/3/2  86/64/2
usemtl __TB_empty
f  86/65/3  82/66/3  81/67/3  87/68/3
usemtl __TB_empty
f  88/68/4  84/67/4  83/66/4  85/65/4
usemtl __TB_empty
f  87/64/5  81/3/5  84/61/5  88/63/5
usemtl __TB_empty
f  88/62/6  85/61/6  86/3/6  87/4/6

o entity1_brush11
usemtl __TB_empty
f  89/1/1  90/2/1  91/3/1  92/4/1
usemtl __TB_empty
f  93/57/2  91/69/2  90/70/2  94/58/2
usemtl __TB_empty
f  94/59/3  90/71/3  89/72/3  95/60/3
usemtl __TB_empty
f  96/60/4  92/72/4  91/71/4  93/59/4
usemtl __TB_empty
f  95/58/5  89/70/5  92/69/5  96/57/5
usemtl __TB_empty
f  96/4/6  93/3/6  94/2/6  95/1/6

o entity1_brush12
usemtl __TB_empty
f  97/4/1  98/3/1  99/73/1  100/74/1
usemtl __TB_empty
f  101/75/2  99/74/2  98/4/2  102/76/2
usemtl __TB_empty
f  102/77/3  98/78/3  97/79/3  103/80/3
usemtl __TB_empty
f  104/80/4  100/79/4  99/78/4  101/77/4
usemtl __TB_empty
f  103/76/5  97/4/5  100/74/5  104/75/5
usemtl __TB_empty
f  104/74/6  101/73/6  102/3/6  103/4/6

o entity1_brush13
usemtl __TB_empty
f  105/4/1  106/3/1  107/81/1  108/82/1
usemtl __TB_empty
f  109/83/2  107/84/2  106/85/2  110/86/2
usemtl __TB_empty
f  110/87/3  106/88/3  105/89/3  111/90/3
usemtl __TB_empty
f  112/90/4  108/89/4  107/88/4  109/87/4
usemtl __TB_empty
f  111/86/5  105/85/5  108/84/5  112/83/5
usemtl __TB_empty
f  112/82/6  109/81/6  110/3/6  111/4/6

o entity1_brush14
usemtl __TB_empty
f  113/4/1  114/3/1  115/91/1  116/92/1
usemtl __TB_empty
f  117/93/2  115/94/2  114/95/2  118/96/2
usemtl __TB_empty
f  118/97/3  114/98/3  113/99/3  119/100/3
usemtl __TB_empty
f  120/100/4  116/99/4  115/98/4  117/97/4
usemtl __TB_empty
f  119/96/5  113/95/5  116/94/5  120/93/5
usemtl __TB_empty
f  120/92/6  117/91/6  118/3/6  119/4/6

o entity1_brush15
usemtl __TB_empty
f  121/4/1  122/3/1  123/101/1  124/102/1
usemtl __TB_empty
f  125/103/2  123/104/2  122/105/2  126/106/2
usemtl __TB_empty
f  126/107/3  122/108/3  121/109/3  127/110/3
usemtl __TB_empty
f  128/110/4  124/109/4  123/108/4  125/107/4
usemtl __TB_empty
f  127/106/5  121/105/5  124/104/5  128/103/5
usemtl __TB_empty
f  128/102/6  125/101/6  126/3/6  127/4/6

o entity1_brush16
usemtl __TB_empty
f  129/4/1  130/3/1  131/111/1  132/112/1
usemtl __TB_empty
f  133/113/2  131/114/2  130/115/2  134/116/2
usemtl __TB_empty
f  134/117/3  130/118/3  129/119/3  135/120/3
usemtl __TB_empty
f  136/120/4  132/119/4  131/118/4  133/117/4
usemtl __TB_empty
f  135/116/5  129/115/5  132/114/5  136/113/5
usemtl __TB_empty
f  136/112/6  133/111/6  134/3/6  135/4/6

