mtllib slides1.mtl
# vertices
v 1600 512 -3136
v 1600 512 -2624
v 1600 656 -2624
v 1600 656 -3136
v 2112 656 -2624
v 2112 512 -2624
v 2112 512 -3136
v 2112 656 -3136
v 2112 272 -3136
v 2112 272 -2624
v 2112 656 -2624
v 2112 656 -3136
v 2624 656 -2624
v 2624 272 -2624
v 2624 272 -3136
v 2624 656 -3136
v 2624 272 -3136
v 2624 272 -2624
v 2624 656 -2624
v 2624 656 -3136
v 3136 656 -2624
v 3136 272 -2624
v 3136 272 -3136
v 3136 656 -3136
v 3136 656 -3136
v 3136 -368 -3136
v 3136 -368 -2624
v 3136 656 -2624
v 3648 448 -2624
v 3648 -368 -2624
v 3648 -368 -3136
v 3648 448 -3136
v 3136 352 -2624
v 3136 -144 -2624
v 3136 -144 -2112
v 3136 352 -2112
v 3648 240 -2112
v 3648 -144 -2112
v 3648 -144 -2624
v 3648 240 -2624
v 3648 240 -2624
v 3648 -256 -2624
v 3648 -256 -2112
v 3648 240 -2112
v 4160 128 -2112
v 4160 -256 -2112
v 4160 -256 -2624
v 4160 128 -2624
v 4160 128 -2624
v 4160 -368 -2624
v 4160 -368 -2112
v 4160 128 -2112
v 4672 16 -2112
v 4672 -368 -2112
v 4672 -368 -2624
v 4672 16 -2624
v 4672 -368 -2624
v 4672 -368 -2112
v 4672 16 -2112
v 4672 16 -2624
v 5184 16 -2112
v 5184 -368 -2112
v 5184 -368 -2624
v 5184 16 -2624
v 5184 -368 -2624
v 5184 -368 -2112
v 5184 16 -2112
v 5184 16 -2624
v 6480 16 -2112
v 6480 -368 -2112
v 6480 -368 -2624
v 6480 16 -2624
v 5184 -368 -3136
v 5184 -368 -2624
v 5184 16 -2624
v 5184 16 -3136
v 6480 16 -2624
v 6480 -368 -2624
v 6480 -368 -3136
v 6480 16 -3136
v 4672 -368 -3136
v 4672 -368 -2624
v 4672 16 -2624
v 4672 16 -3136
v 5184 16 -2624
v 5184 -368 -2624
v 5184 -368 -3136
v 5184 16 -3136
v 4160 224 -3136
v 4160 -368 -3136
v 4160 -368 -2624
v 4160 240 -2624
v 4672 16 -2624
v 4672 -368 -2624
v 4672 -368 -3136
v 4672 16 -3136
v 3648 448 -3136
v 3648 -368 -3136
v 3648 -368 -2624
v 3648 448 -2624
v 4160 240 -2624
v 4160 -368 -2624
v 4160 -368 -3136
v 4160 224 -3136
v 2624 -32 -2624
v 2624 -32 -2112
v 2624 352 -2112
v 2624 352 -2624
v 3136 352 -2112
v 3136 -32 -2112
v 3136 -32 -2624
v 3136 352 -2624
v 2112 -32 -2624
v 2112 -32 -2112
v 2112 352 -2112
v 2112 352 -2624
v 2624 352 -2112
v 2624 -32 -2112
v 2624 -32 -2624
v 2624 352 -2624
v 1600 -368 -2624
v 1600 -368 -2112
v 1600 16 -2112
v 1600 16 -2624
v 2112 16 -2112
v 2112 -368 -2112
v 2112 -368 -2624
v 2112 16 -2624

# texture coordinates
vt 3136 512
vt 2624 512
vt 2624 656
vt 3136 656
vt -2112 656
vt -1600 656
vt -1600 512
vt -2112 512
vt 2624 -2112
vt 2624 -1600
vt 3136 -1600
vt 3136 -2112
vt 3136 272
vt 2624 272
vt -2624 656
vt -2112 272
vt -2624 272
vt 2624 -2624
vt 3136 -2624
vt -3136 656
vt -3136 272
vt 2624 -3136
vt 3136 -3136
vt 3136 -368
vt 2624 -368
vt -3648 448
vt -3136 -368
vt -3648 -368
vt 2624 -3648
vt 3136 -3648
vt 3136 -3648.9998
vt 3136 -3136.9998
vt 2624 -3136.9998
vt 2624 -3648.9998
vt 3136 448
vt 2624 448
vt 2624 352
vt 2624 -144
vt 2112 -144
vt 2112 352
vt -3648 240
vt -3136 352
vt -3136 -144
vt -3648 -144
vt 2112 -3648
vt 2112 -3136
vt 2624 240
vt 2112 240
vt 2624 -256
vt 2112 -256
vt -4160 128
vt -3648 -256
vt -4160 -256
vt 2112 -4160
vt 2624 -4160
vt 2624 128
vt 2112 128
vt 2112 -368
vt -4672 16
vt -4160 -368
vt -4672 -368
vt 2112 -4672
vt 2624 -4672
vt 2624 16
vt 2112 16
vt -5184 16
vt -5184 -368
vt 2112 -5184
vt 2624 -5184
vt -6480 16
vt -6480 -368
vt 2112 -6480
vt 2624 -6480
vt 3136 16
vt 3136 -5184
vt 3136 -6480
vt 3136 -4672
vt 3136 224
vt -4160 240
vt 3136 -4160
vt -4160 224
vt 2624 -4161
vt 2624 -32
vt 2112 -32
vt -2624 352
vt -2624 -32
vt -3136 -32
vt 2112 -2624
vt -2112 352
vt -2112 -32
vt 2112 -2112
vt -2112 16
vt -1600 16
vt -1600 -368
vt -2112 -368
vt 2112 -1600

# normals
vn -1 0 -0
vn 0 0 1
vn 0 -1 -0
vn 0 1 0
vn 0 -0 -1
vn 1 0 -0
vn 0.3763770469559381 0.9264665771223092 -0
vn 0.21369687880543226 0.9769000173962618 -0
vn 0.37621940211260124 0.9260785282771723 -0.028939954008661634
vn 0.4008188340197078 0.9161573349021892 -0
vn 0.40065466492249974 0.915782091251428 -0.028618190351607124

o entity1_brush0
usemtl __TB_empty
f  1/1/1  2/2/1  3/3/1  4/4/1
usemtl __TB_empty
f  5/5/2  3/6/2  2/7/2  6/8/2
usemtl __TB_empty
f  6/9/3  2/10/3  1/11/3  7/12/3
usemtl __TB_empty
f  8/12/4  4/11/4  3/10/4  5/9/4
usemtl __TB_empty
f  7/8/5  1/7/5  4/6/5  8/5/5
usemtl __TB_empty
f  8/4/6  5/3/6  6/2/6  7/1/6

o entity1_brush1
usemtl __TB_empty
f  9/13/1  10/14/1  11/3/1  12/4/1
usemtl __TB_empty
f  13/15/2  11/5/2  10/16/2  14/17/2
usemtl __TB_empty
f  14/18/3  10/9/3  9/12/3  15/19/3
usemtl __TB_empty
f  16/19/4  12/12/4  11/9/4  13/18/4
usemtl __TB_empty
f  15/17/5  9/16/5  12/5/5  16/15/5
usemtl __TB_empty
f  16/4/6  13/3/6  14/14/6  15/13/6

o entity1_brush2
usemtl __TB_empty
f  17/13/1  18/14/1  19/3/1  20/4/1
usemtl __TB_empty
f  21/20/2  19/15/2  18/17/2  22/21/2
usemtl __TB_empty
f  22/22/3  18/18/3  17/19/3  23/23/3
usemtl __TB_empty
f  24/23/4  20/19/4  19/18/4  21/22/4
usemtl __TB_empty
f  23/21/5  17/17/5  20/15/5  24/20/5
usemtl __TB_empty
f  24/4/6  21/3/6  22/14/6  23/13/6

o entity1_brush3
usemtl __TB_empty
f  25/4/1  26/24/1  27/25/1  28/3/1
usemtl __TB_empty
f  29/26/2  28/20/2  27/27/2  30/28/2
usemtl __TB_empty
f  30/29/3  27/22/3  26/23/3  31/30/3
usemtl __TB_empty
f  31/28/5  26/27/5  25/20/5  32/26/5
usemtl __TB_empty
f  32/31/7  25/32/7  28/33/7  29/34/7
usemtl __TB_empty
f  31/24/6  32/35/6  29/36/6  30/25/6

o entity1_brush4
usemtl __TB_empty
f  33/37/1  34/38/1  35/39/1  36/40/1
usemtl __TB_empty
f  37/41/2  36/42/2  35/43/2  38/44/2
usemtl __TB_empty
f  38/45/3  35/46/3  34/22/3  39/29/3
usemtl __TB_empty
f  39/44/5  34/43/5  33/42/5  40/41/5
usemtl __TB_empty
f  40/29/8  33/22/8  36/46/8  37/45/8
usemtl __TB_empty
f  39/38/6  40/47/6  37/48/6  38/39/6

o entity1_brush5
usemtl __TB_empty
f  41/47/1  42/49/1  43/50/1  44/48/1
usemtl __TB_empty
f  45/51/2  44/41/2  43/52/2  46/53/2
usemtl __TB_empty
f  46/54/3  43/45/3  42/29/3  47/55/3
usemtl __TB_empty
f  47/53/5  42/52/5  41/41/5  48/51/5
usemtl __TB_empty
f  48/55/8  41/29/8  44/45/8  45/54/8
usemtl __TB_empty
f  47/49/6  48/56/6  45/57/6  46/50/6

o entity1_brush6
usemtl __TB_empty
f  49/56/1  50/25/1  51/58/1  52/57/1
usemtl __TB_empty
f  53/59/2  52/51/2  51/60/2  54/61/2
usemtl __TB_empty
f  54/62/3  51/54/3  50/55/3  55/63/3
usemtl __TB_empty
f  55/61/5  50/60/5  49/51/5  56/59/5
usemtl __TB_empty
f  56/63/8  49/55/8  52/54/8  53/62/8
usemtl __TB_empty
f  55/25/6  56/64/6  53/65/6  54/58/6

o entity1_brush7
usemtl __TB_empty
f  57/25/1  58/58/1  59/65/1  60/64/1
usemtl __TB_empty
f  61/66/2  59/59/2  58/61/2  62/67/2
usemtl __TB_empty
f  62/68/3  58/62/3  57/63/3  63/69/3
usemtl __TB_empty
f  64/69/4  60/63/4  59/62/4  61/68/4
usemtl __TB_empty
f  63/67/5  57/61/5  60/59/5  64/66/5
usemtl __TB_empty
f  64/64/6  61/65/6  62/58/6  63/25/6

o entity1_brush8
usemtl __TB_empty
f  65/25/1  66/58/1  67/65/1  68/64/1
usemtl __TB_empty
f  69/70/2  67/66/2  66/67/2  70/71/2
usemtl __TB_empty
f  70/72/3  66/68/3  65/69/3  71/73/3
usemtl __TB_empty
f  72/73/4  68/69/4  67/68/4  69/72/4
usemtl __TB_empty
f  71/71/5  65/67/5  68/66/5  72/70/5
usemtl __TB_empty
f  72/64/6  69/65/6  70/58/6  71/25/6

o entity1_brush9
usemtl __TB_empty
f  73/24/1  74/25/1  75/64/1  76/74/1
usemtl __TB_empty
f  77/70/2  75/66/2  74/67/2  78/71/2
usemtl __TB_empty
f  78/73/3  74/69/3  73/75/3  79/76/3
usemtl __TB_empty
f  80/76/4  76/75/4  75/69/4  77/73/4
usemtl __TB_empty
f  79/71/5  73/67/5  76/66/5  80/70/5
usemtl __TB_empty
f  80/74/6  77/64/6  78/25/6  79/24/6

o entity1_brush10
usemtl __TB_empty
f  81/24/1  82/25/1  83/64/1  84/74/1
usemtl __TB_empty
f  85/66/2  83/59/2  82/61/2  86/67/2
usemtl __TB_empty
f  86/69/3  82/63/3  81/77/3  87/75/3
usemtl __TB_empty
f  88/75/4  84/77/4  83/63/4  85/69/4
usemtl __TB_empty
f  87/67/5  81/61/5  84/59/5  88/66/5
usemtl __TB_empty
f  88/74/6  85/64/6  86/25/6  87/24/6

o entity1_brush11
usemtl __TB_empty
f  89/78/1  90/24/1  91/25/1  92/47/1
usemtl __TB_empty
f  93/59/2  92/79/2  91/60/2  94/61/2
usemtl __TB_empty
f  94/63/3  91/55/3  90/80/3  95/77/3
usemtl __TB_empty
f  95/61/5  90/60/5  89/81/5  96/59/5
usemtl __TB_empty
f  96/77/9  89/80/9  92/55/9
usemtl __TB_empty
f  96/77/10  92/55/10  93/63/10
usemtl __TB_empty
f  93/64/6  94/25/6  95/24/6  96/74/6

o entity1_brush12
usemtl __TB_empty
f  97/35/1  98/24/1  99/25/1  100/36/1
usemtl __TB_empty
f  101/79/2  100/26/2  99/28/2  102/60/2
usemtl __TB_empty
f  102/55/3  99/29/3  98/30/3  103/80/3
usemtl __TB_empty
f  103/60/5  98/28/5  97/26/5  104/81/5
usemtl __TB_empty
f  97/31/7  100/34/7  101/82/7
usemtl __TB_empty
f  104/80/11  97/30/11  101/55/11
usemtl __TB_empty
f  101/47/6  102/25/6  103/24/6  104/78/6

o entity1_brush13
usemtl __TB_empty
f  105/83/1  106/84/1  107/40/1  108/37/1
usemtl __TB_empty
f  109/42/2  107/85/2  106/86/2  110/87/2
usemtl __TB_empty
f  110/46/3  106/88/3  105/18/3  111/22/3
usemtl __TB_empty
f  112/22/4  108/18/4  107/88/4  109/46/4
usemtl __TB_empty
f  111/87/5  105/86/5  108/85/5  112/42/5
usemtl __TB_empty
f  112/37/6  109/40/6  110/84/6  111/83/6

o entity1_brush14
usemtl __TB_empty
f  113/83/1  114/84/1  115/40/1  116/37/1
usemtl __TB_empty
f  117/85/2  115/89/2  114/90/2  118/86/2
usemtl __TB_empty
f  118/88/3  114/91/3  113/9/3  119/18/3
usemtl __TB_empty
f  120/18/4  116/9/4  115/91/4  117/88/4
usemtl __TB_empty
f  119/86/5  113/90/5  116/89/5  120/85/5
usemtl __TB_empty
f  120/37/6  117/40/6  118/84/6  119/83/6

o entity1_brush15
usemtl __TB_empty
f  121/25/1  122/58/1  123/65/1  124/64/1
usemtl __TB_empty
f  125/92/2  123/93/2  122/94/2  126/95/2
usemtl __TB_empty
f  126/91/3  122/96/3  121/10/3  127/9/3
usemtl __TB_empty
f  128/9/4  124/10/4  123/96/4  125/91/4
usemtl __TB_empty
f  127/95/5  121/94/5  124/93/5  128/92/5
usemtl __TB_empty
f  128/64/6  125/65/6  126/58/6  127/25/6

