mtllib stairs1.mtl
# vertices
v 1600 -368 -3648
v 1600 -368 -3136
v 1600 16 -3136
v 1600 16 -3648
v 1728 16 -3136
v 1728 -368 -3136
v 1728 -368 -3648
v 1728 16 -3648
v 1728 -352 -3648
v 1728 -352 -3136
v 1728 32 -3136
v 1728 32 -3648
v 1856 32 -3136
v 1856 -352 -3136
v 1856 -352 -3648
v 1856 32 -3648
v 1856 -336 -3648
v 1856 -336 -3136
v 1856 48 -3136
v 1856 48 -3648
v 1984 48 -3136
v 1984 -336 -3136
v 1984 -336 -3648
v 1984 48 -3648
v 1984 -320 -3648
v 1984 -320 -3136
v 1984 64 -3136
v 1984 64 -3648
v 2112 64 -3136
v 2112 -320 -3136
v 2112 -320 -3648
v 2112 64 -3648
v 2112 -304 -3648
v 2112 -304 -3136
v 2112 80 -3136
v 2112 80 -3648
v 2240 80 -3136
v 2240 -304 -3136
v 2240 -304 -3648
v 2240 80 -3648
v 2240 -288 -3648
v 2240 -288 -3136
v 2240 96 -3136
v 2240 96 -3648
v 2368 96 -3136
v 2368 -288 -3136
v 2368 -288 -3648
v 2368 96 -3648
v 2368 -272 -3664
v 2368 -272 -3152
v 2368 112 -3152
v 2368 112 -3664
v 2496 112 -3152
v 2496 -272 -3152
v 2496 -272 -3664
v 2496 112 -3664
v 2496 -256 -3664
v 2496 -256 -3152
v 2496 128 -3152
v 2496 128 -3664
v 2624 128 -3152
v 2624 -256 -3152
v 2624 -256 -3664
v 2624 128 -3664
v 2624 -224 -3664
v 2624 -224 -3152
v 2624 160 -3152
v 2624 160 -3664
v 2752 160 -3152
v 2752 -224 -3152
v 2752 -224 -3664
v 2752 160 -3664
v 2752 -192 -3664
v 2752 -192 -3152
v 2752 192 -3152
v 2752 192 -3664
v 2880 192 -3152
v 2880 -192 -3152
v 2880 -192 -3664
v 2880 192 -3664
v 2880 -160 -3664
v 2880 -160 -3152
v 2880 224 -3152
v 2880 224 -3664
v 3008 224 -3152
v 3008 -160 -3152
v 3008 -160 -3664
v 3008 224 -3664
v 3008 -128 -3664
v 3008 -128 -3152
v 3008 256 -3152
v 3008 256 -3664
v 3136 256 -3152
v 3136 -128 -3152
v 3136 -128 -3664
v 3136 256 -3664
v 3136 -96 -3664
v 3136 -96 -3152
v 3136 288 -3152
v 3136 288 -3664
v 3264 288 -3152
v 3264 -96 -3152
v 3264 -96 -3664
v 3264 288 -3664
v 3264 -64 -3664
v 3264 -64 -3152
v 3264 320 -3152
v 3264 320 -3664
v 3392 320 -3152
v 3392 -64 -3152
v 3392 -64 -3664
v 3392 320 -3664
v 3392 -32 -3664
v 3392 -32 -3152
v 3392 352 -3152
v 3392 352 -3664
v 3520 352 -3152
v 3520 -32 -3152
v 3520 -32 -3664
v 3520 352 -3664
v 3520 0 -3664
v 3520 0 -3136
v 3520 384 -3136
v 3520 384 -3664
v 4672 384 -3136
v 4672 0 -3136
v 4672 0 -3664
v 4672 384 -3664
v 4672 0 -3648
v 4672 0 -3136
v 4672 384 -3136
v 4672 384 -3648
v 4736 384 -3136
v 4736 0 -3136
v 4736 0 -3648
v 4736 384 -3648
v 4736 -32 -3648
v 4736 -32 -3136
v 4736 352 -3136
v 4736 352 -3648
v 4800 352 -3136
v 4800 -32 -3136
v 4800 -32 -3648
v 4800 352 -3648
v 4800 -64 -3648
v 4800 -64 -3136
v 4800 320 -3136
v 4800 320 -3648
v 4864 320 -3136
v 4864 -64 -3136
v 4864 -64 -3648
v 4864 320 -3648
v 4864 -96 -3648
v 4864 -96 -3136
v 4864 288 -3136
v 4864 288 -3648
v 4928 288 -3136
v 4928 -96 -3136
v 4928 -96 -3648
v 4928 288 -3648
v 4928 -128 -3648
v 4928 -128 -3136
v 4928 256 -3136
v 4928 256 -3648
v 4992 256 -3136
v 4992 -128 -3136
v 4992 -128 -3648
v 4992 256 -3648
v 4992 -160 -3648
v 4992 -160 -3136
v 4992 224 -3136
v 4992 224 -3648
v 5056 224 -3136
v 5056 -160 -3136
v 5056 -160 -3648
v 5056 224 -3648
v 5056 -192 -3648
v 5056 -192 -3136
v 5056 192 -3136
v 5056 192 -3648
v 5120 192 -3136
v 5120 -192 -3136
v 5120 -192 -3648
v 5120 192 -3648
v 5120 -224 -3648
v 5120 -224 -3136
v 5120 160 -3136
v 5120 160 -3648
v 5184 160 -3136
v 5184 -224 -3136
v 5184 -224 -3648
v 5184 160 -3648
v 5184 -256 -3648
v 5184 -256 -3136
v 5184 128 -3136
v 5184 128 -3648
v 5248 128 -3136
v 5248 -256 -3136
v 5248 -256 -3648
v 5248 128 -3648
v 5248 -272 -3648
v 5248 -272 -3136
v 5248 112 -3136
v 5248 112 -3648
v 5312 112 -3136
v 5312 -272 -3136
v 5312 -272 -3648
v 5312 112 -3648
v 5312 -288 -3648
v 5312 -288 -3136
v 5312 96 -3136
v 5312 96 -3648
v 5376 96 -3136
v 5376 -288 -3136
v 5376 -288 -3648
v 5376 96 -3648
v 5376 -304 -3648
v 5376 -304 -3136
v 5376 80 -3136
v 5376 80 -3648
v 5440 80 -3136
v 5440 -304 -3136
v 5440 -304 -3648
v 5440 80 -3648
v 5440 -320 -3648
v 5440 -320 -3136
v 5440 64 -3136
v 5440 64 -3648
v 5504 64 -3136
v 5504 -320 -3136
v 5504 -320 -3648
v 5504 64 -3648
v 5504 -336 -3648
v 5504 -336 -3136
v 5504 48 -3136
v 5504 48 -3648
v 5568 48 -3136
v 5568 -336 -3136
v 5568 -336 -3648
v 5568 48 -3648
v 5568 -352 -3648
v 5568 -352 -3136
v 5568 32 -3136
v 5568 32 -3648
v 5632 32 -3136
v 5632 -352 -3136
v 5632 -352 -3648
v 5632 32 -3648
v 5632 -368 -3648
v 5632 -368 -3136
v 5632 16 -3136
v 5632 16 -3648
v 5696 16 -3136
v 5696 -368 -3136
v 5696 -368 -3648
v 5696 16 -3648
v 1600 -368 -3136
v 1600 -368 -2624
v 1600 16 -2624
v 1600 16 -3136
v 2112 16 -2624
v 2112 -368 -2624
v 2112 -368 -3136
v 2112 16 -3136

# texture coordinates
vt 3648 -368
vt 3136 -368
vt 3136 16
vt 3648 16
vt -1728 16
vt -1600 16
vt -1600 -368
vt -1728 -368
vt 3136 -1728
vt 3136 -1600
vt 3648 -1600
vt 3648 -1728
vt 3648 -352
vt 3136 -352
vt 3136 32
vt 3648 32
vt -1856 32
vt -1728 32
vt -1728 -352
vt -1856 -352
vt 3136 -1856
vt 3648 -1856
vt 3648 -336
vt 3136 -336
vt 3136 48
vt 3648 48
vt -1984 48
vt -1856 48
vt -1856 -336
vt -1984 -336
vt 3136 -1984
vt 3648 -1984
vt 3648 -320
vt 3136 -320
vt 3136 64
vt 3648 64
vt -2112 64
vt -1984 64
vt -1984 -320
vt -2112 -320
vt 3136 -2112
vt 3648 -2112
vt 3648 -304
vt 3136 -304
vt 3136 80
vt 3648 80
vt -2240 80
vt -2112 80
vt -2112 -304
vt -2240 -304
vt 3136 -2240
vt 3648 -2240
vt 3648 -288
vt 3136 -288
vt 3136 96
vt 3648 96
vt -2368 96
vt -2240 96
vt -2240 -288
vt -2368 -288
vt 3136 -2368
vt 3648 -2368
vt 3664 -272
vt 3152 -272
vt 3152 112
vt 3664 112
vt -2496 112
vt -2368 112
vt -2368 -272
vt -2496 -272
vt 3152 -2496
vt 3152 -2368
vt 3664 -2368
vt 3664 -2496
vt 3664 -256
vt 3152 -256
vt 3152 128
vt 3664 128
vt -2624 128
vt -2496 128
vt -2496 -256
vt -2624 -256
vt 3152 -2624
vt 3664 -2624
vt 3664 -224
vt 3152 -224
vt 3152 160
vt 3664 160
vt -2752 160
vt -2624 160
vt -2624 -224
vt -2752 -224
vt 3152 -2752
vt 3664 -2752
vt 3664 -192
vt 3152 -192
vt 3152 192
vt 3664 192
vt -2880 192
vt -2752 192
vt -2752 -192
vt -2880 -192
vt 3152 -2880
vt 3664 -2880
vt 3664 -160
vt 3152 -160
vt 3152 224
vt 3664 224
vt -3008 224
vt -2880 224
vt -2880 -160
vt -3008 -160
vt 3152 -3008
vt 3664 -3008
vt 3664 -128
vt 3152 -128
vt 3152 256
vt 3664 256
vt -3136 256
vt -3008 256
vt -3008 -128
vt -3136 -128
vt 3152 -3136
vt 3664 -3136
vt 3664 -96
vt 3152 -96
vt 3152 288
vt 3664 288
vt -3264 288
vt -3136 288
vt -3136 -96
vt -3264 -96
vt 3152 -3264
vt 3664 -3264
vt 3664 -64
vt 3152 -64
vt 3152 320
vt 3664 320
vt -3392 320
vt -3264 320
vt -3264 -64
vt -3392 -64
vt 3152 -3392
vt 3664 -3392
vt 3664 -32
vt 3152 -32
vt 3152 352
vt 3664 352
vt -3520 352
vt -3392 352
vt -3392 -32
vt -3520 -32
vt 3152 -3520
vt 3664 -3520
vt 3664 -0
vt 3136 -0
vt 3136 384
vt 3664 384
vt -4672 384
vt -3520 384
vt -3520 -0
vt -4672 -0
vt 3136 -4672
vt 3136 -3520
vt 3664 -4672
vt 3648 -0
vt 3648 384
vt -4736 384
vt -4736 -0
vt 3136 -4736
vt 3648 -4672
vt 3648 -4736
vt 3648 -32
vt 3136 -32
vt 3136 352
vt 3648 352
vt -4800 352
vt -4736 352
vt -4736 -32
vt -4800 -32
vt 3136 -4800
vt 3648 -4800
vt 3648 -64
vt 3136 -64
vt 3136 320
vt 3648 320
vt -4864 320
vt -4800 320
vt -4800 -64
vt -4864 -64
vt 3136 -4864
vt 3648 -4864
vt 3648 -96
vt 3136 -96
vt 3136 288
vt 3648 288
vt -4928 288
vt -4864 288
vt -4864 -96
vt -4928 -96
vt 3136 -4928
vt 3648 -4928
vt 3648 -128
vt 3136 -128
vt 3136 256
vt 3648 256
vt -4992 256
vt -4928 256
vt -4928 -128
vt -4992 -128
vt 3136 -4992
vt 3648 -4992
vt 3648 -160
vt 3136 -160
vt 3136 224
vt 3648 224
vt -5056 224
vt -4992 224
vt -4992 -160
vt -5056 -160
vt 3136 -5056
vt 3648 -5056
vt 3648 -192
vt 3136 -192
vt 3136 192
vt 3648 192
vt -5120 192
vt -5056 192
vt -5056 -192
vt -5120 -192
vt 3136 -5120
vt 3648 -5120
vt 3648 -224
vt 3136 -224
vt 3136 160
vt 3648 160
vt -5184 160
vt -5120 160
vt -5120 -224
vt -5184 -224
vt 3136 -5184
vt 3648 -5184
vt 3648 -256
vt 3136 -256
vt 3136 128
vt 3648 128
vt -5248 128
vt -5184 128
vt -5184 -256
vt -5248 -256
vt 3136 -5248
vt 3648 -5248
vt 3648 -272
vt 3136 -272
vt 3136 112
vt 3648 112
vt -5312 112
vt -5248 112
vt -5248 -272
vt -5312 -272
vt 3136 -5312
vt 3648 -5312
vt -5376 96
vt -5312 96
vt -5312 -288
vt -5376 -288
vt 3136 -5376
vt 3648 -5376
vt -5440 80
vt -5376 80
vt -5376 -304
vt -5440 -304
vt 3136 -5440
vt 3648 -5440
vt -5504 64
vt -5440 64
vt -5440 -320
vt -5504 -320
vt 3136 -5504
vt 3648 -5504
vt -5568 48
vt -5504 48
vt -5504 -336
vt -5568 -336
vt 3136 -5568
vt 3648 -5568
vt -5632 32
vt -5568 32
vt -5568 -352
vt -5632 -352
vt 3136 -5632
vt 3648 -5632
vt -5696 16
vt -5632 16
vt -5632 -368
vt -5696 -368
vt 3136 -5696
vt 3648 -5696
vt 2624 -368
vt 2624 16
vt -2112 16
vt -2112 -368
vt 2624 -2112
vt 2624 -1600

# normals
vn -1 0 -0
vn 0 0 1
vn 0 -1 -0
vn 0 1 0
vn 0 -0 -1
vn 1 0 -0

o entity1_brush0
usemtl __TB_empty
f  1/1/1  2/2/1  3/3/1  4/4/1
usemtl __TB_empty
f  5/5/2  3/6/2  2/7/2  6/8/2
usemtl __TB_empty
f  6/9/3  2/10/3  1/11/3  7/12/3
usemtl __TB_empty
f  8/12/4  4/11/4  3/10/4  5/9/4
usemtl __TB_empty
f  7/8/5  1/7/5  4/6/5  8/5/5
usemtl __TB_empty
f  8/4/6  5/3/6  6/2/6  7/1/6

o entity1_brush1
usemtl __TB_empty
f  9/13/1  10/14/1  11/15/1  12/16/1
usemtl __TB_empty
f  13/17/2  11/18/2  10/19/2  14/20/2
usemtl __TB_empty
f  14/21/3  10/9/3  9/12/3  15/22/3
usemtl __TB_empty
f  16/22/4  12/12/4  11/9/4  13/21/4
usemtl __TB_empty
f  15/20/5  9/19/5  12/18/5  16/17/5
usemtl __TB_empty
f  16/16/6  13/15/6  14/14/6  15/13/6

o entity1_brush2
usemtl __TB_empty
f  17/23/1  18/24/1  19/25/1  20/26/1
usemtl __TB_empty
f  21/27/2  19/28/2  18/29/2  22/30/2
usemtl __TB_empty
f  22/31/3  18/21/3  17/22/3  23/32/3
usemtl __TB_empty
f  24/32/4  20/22/4  19/21/4  21/31/4
usemtl __TB_empty
f  23/30/5  17/29/5  20/28/5  24/27/5
usemtl __TB_empty
f  24/26/6  21/25/6  22/24/6  23/23/6

o entity1_brush3
usemtl __TB_empty
f  25/33/1  26/34/1  27/35/1  28/36/1
usemtl __TB_empty
f  29/37/2  27/38/2  26/39/2  30/40/2
usemtl __TB_empty
f  30/41/3  26/31/3  25/32/3  31/42/3
usemtl __TB_empty
f  32/42/4  28/32/4  27/31/4  29/41/4
usemtl __TB_empty
f  31/40/5  25/39/5  28/38/5  32/37/5
usemtl __TB_empty
f  32/36/6  29/35/6  30/34/6  31/33/6

o entity1_brush4
usemtl __TB_empty
f  33/43/1  34/44/1  35/45/1  36/46/1
usemtl __TB_empty
f  37/47/2  35/48/2  34/49/2  38/50/2
usemtl __TB_empty
f  38/51/3  34/41/3  33/42/3  39/52/3
usemtl __TB_empty
f  40/52/4  36/42/4  35/41/4  37/51/4
usemtl __TB_empty
f  39/50/5  33/49/5  36/48/5  40/47/5
usemtl __TB_empty
f  40/46/6  37/45/6  38/44/6  39/43/6

o entity1_brush5
usemtl __TB_empty
f  41/53/1  42/54/1  43/55/1  44/56/1
usemtl __TB_empty
f  45/57/2  43/58/2  42/59/2  46/60/2
usemtl __TB_empty
f  46/61/3  42/51/3  41/52/3  47/62/3
usemtl __TB_empty
f  48/62/4  44/52/4  43/51/4  45/61/4
usemtl __TB_empty
f  47/60/5  41/59/5  44/58/5  48/57/5
usemtl __TB_empty
f  48/56/6  45/55/6  46/54/6  47/53/6

o entity1_brush6
usemtl __TB_empty
f  49/63/1  50/64/1  51/65/1  52/66/1
usemtl __TB_empty
f  53/67/2  51/68/2  50/69/2  54/70/2
usemtl __TB_empty
f  54/71/3  50/72/3  49/73/3  55/74/3
usemtl __TB_empty
f  56/74/4  52/73/4  51/72/4  53/71/4
usemtl __TB_empty
f  55/70/5  49/69/5  52/68/5  56/67/5
usemtl __TB_empty
f  56/66/6  53/65/6  54/64/6  55/63/6

o entity1_brush7
usemtl __TB_empty
f  57/75/1  58/76/1  59/77/1  60/78/1
usemtl __TB_empty
f  61/79/2  59/80/2  58/81/2  62/82/2
usemtl __TB_empty
f  62/83/3  58/71/3  57/74/3  63/84/3
usemtl __TB_empty
f  64/84/4  60/74/4  59/71/4  61/83/4
usemtl __TB_empty
f  63/82/5  57/81/5  60/80/5  64/79/5
usemtl __TB_empty
f  64/78/6  61/77/6  62/76/6  63/75/6

o entity1_brush8
usemtl __TB_empty
f  65/85/1  66/86/1  67/87/1  68/88/1
usemtl __TB_empty
f  69/89/2  67/90/2  66/91/2  70/92/2
usemtl __TB_empty
f  70/93/3  66/83/3  65/84/3  71/94/3
usemtl __TB_empty
f  72/94/4  68/84/4  67/83/4  69/93/4
usemtl __TB_empty
f  71/92/5  65/91/5  68/90/5  72/89/5
usemtl __TB_empty
f  72/88/6  69/87/6  70/86/6  71/85/6

o entity1_brush9
usemtl __TB_empty
f  73/95/1  74/96/1  75/97/1  76/98/1
usemtl __TB_empty
f  77/99/2  75/100/2  74/101/2  78/102/2
usemtl __TB_empty
f  78/103/3  74/93/3  73/94/3  79/104/3
usemtl __TB_empty
f  80/104/4  76/94/4  75/93/4  77/103/4
usemtl __TB_empty
f  79/102/5  73/101/5  76/100/5  80/99/5
usemtl __TB_empty
f  80/98/6  77/97/6  78/96/6  79/95/6

o entity1_brush10
usemtl __TB_empty
f  81/105/1  82/106/1  83/107/1  84/108/1
usemtl __TB_empty
f  85/109/2  83/110/2  82/111/2  86/112/2
usemtl __TB_empty
f  86/113/3  82/103/3  81/104/3  87/114/3
usemtl __TB_empty
f  88/114/4  84/104/4  83/103/4  85/113/4
usemtl __TB_empty
f  87/112/5  81/111/5  84/110/5  88/109/5
usemtl __TB_empty
f  88/108/6  85/107/6  86/106/6  87/105/6

o entity1_brush11
usemtl __TB_empty
f  89/115/1  90/116/1  91/117/1  92/118/1
usemtl __TB_empty
f  93/119/2  91/120/2  90/121/2  94/122/2
usemtl __TB_empty
f  94/123/3  90/113/3  89/114/3  95/124/3
usemtl __TB_empty
f  96/124/4  92/114/4  91/113/4  93/123/4
usemtl __TB_empty
f  95/122/5  89/121/5  92/120/5  96/119/5
usemtl __TB_empty
f  96/118/6  93/117/6  94/116/6  95/115/6

o entity1_brush12
usemtl __TB_empty
f  97/125/1  98/126/1  99/127/1  100/128/1
usemtl __TB_empty
f  101/129/2  99/130/2  98/131/2  102/132/2
usemtl __TB_empty
f  102/133/3  98/123/3  97/124/3  103/134/3
usemtl __TB_empty
f  104/134/4  100/124/4  99/123/4  101/133/4
usemtl __TB_empty
f  103/132/5  97/131/5  100/130/5  104/129/5
usemtl __TB_empty
f  104/128/6  101/127/6  102/126/6  103/125/6

o entity1_brush13
usemtl __TB_empty
f  105/135/1  106/136/1  107/137/1  108/138/1
usemtl __TB_empty
f  109/139/2  107/140/2  106/141/2  110/142/2
usemtl __TB_empty
f  110/143/3  106/133/3  105/134/3  111/144/3
usemtl __TB_empty
f  112/144/4  108/134/4  107/133/4  109/143/4
usemtl __TB_empty
f  111/142/5  105/141/5  108/140/5  112/139/5
usemtl __TB_empty
f  112/138/6  109/137/6  110/136/6  111/135/6

o entity1_brush14
usemtl __TB_empty
f  113/145/1  114/146/1  115/147/1  116/148/1
usemtl __TB_empty
f  117/149/2  115/150/2  114/151/2  118/152/2
usemtl __TB_empty
f  118/153/3  114/143/3  113/144/3  119/154/3
usemtl __TB_empty
f  120/154/4  116/144/4  115/143/4  117/153/4
usemtl __TB_empty
f  119/152/5  113/151/5  116/150/5  120/149/5
usemtl __TB_empty
f  120/148/6  117/147/6  118/146/6  119/145/6

o entity1_brush15
usemtl __TB_empty
f  121/155/1  122/156/1  123/157/1  124/158/1
usemtl __TB_empty
f  125/159/2  123/160/2  122/161/2  126/162/2
usemtl __TB_empty
f  126/163/3  122/164/3  121/154/3  127/165/3
usemtl __TB_empty
f  128/165/4  124/154/4  123/164/4  125/163/4
usemtl __TB_empty
f  127/162/5  121/161/5  124/160/5  128/159/5
usemtl __TB_empty
f  128/158/6  125/157/6  126/156/6  127/155/6

o entity1_brush16
usemtl __TB_empty
f  129/166/1  130/156/1  131/157/1  132/167/1
usemtl __TB_empty
f  133/168/2  131/159/2  130/162/2  134/169/2
usemtl __TB_empty
f  134/170/3  130/163/3  129/171/3  135/172/3
usemtl __TB_empty
f  136/172/4  132/171/4  131/163/4  133/170/4
usemtl __TB_empty
f  135/169/5  129/162/5  132/159/5  136/168/5
usemtl __TB_empty
f  136/167/6  133/157/6  134/156/6  135/166/6

o entity1_brush17
usemtl __TB_empty
f  137/173/1  138/174/1  139/175/1  140/176/1
usemtl __TB_empty
f  141/177/2  139/178/2  138/179/2  142/180/2
usemtl __TB_empty
f  142/181/3  138/170/3  137/172/3  143/182/3
usemtl __TB_empty
f  144/182/4  140/172/4  139/170/4  141/181/4
usemtl __TB_empty
f  143/180/5  137/179/5  140/178/5  144/177/5
usemtl __TB_empty
f  144/176/6  141/175/6  142/174/6  143/173/6

o entity1_brush18
usemtl __TB_empty
f  145/183/1  146/184/1  147/185/1  148/186/1
usemtl __TB_empty
f  149/187/2  147/188/2  146/189/2  150/190/2
usemtl __TB_empty
f  150/191/3  146/181/3  145/182/3  151/192/3
usemtl __TB_empty
f  152/192/4  148/182/4  147/181/4  149/191/4
usemtl __TB_empty
f  151/190/5  145/189/5  148/188/5  152/187/5
usemtl __TB_empty
f  152/186/6  149/185/6  150/184/6  151/183/6

o entity1_brush19
usemtl __TB_empty
f  153/193/1  154/194/1  155/195/1  156/196/1
usemtl __TB_empty
f  157/197/2  155/198/2  154/199/2  158/200/2
usemtl __TB_empty
f  158/201/3  154/191/3  153/192/3  159/202/3
usemtl __TB_empty
f  160/202/4  156/192/4  155/191/4  157/201/4
usemtl __TB_empty
f  159/200/5  153/199/5  156/198/5  160/197/5
usemtl __TB_empty
f  160/196/6  157/195/6  158/194/6  159/193/6

o entity1_brush20
usemtl __TB_empty
f  161/203/1  162/204/1  163/205/1  164/206/1
usemtl __TB_empty
f  165/207/2  163/208/2  162/209/2  166/210/2
usemtl __TB_empty
f  166/211/3  162/201/3  161/202/3  167/212/3
usemtl __TB_empty
f  168/212/4  164/202/4  163/201/4  165/211/4
usemtl __TB_empty
f  167/210/5  161/209/5  164/208/5  168/207/5
usemtl __TB_empty
f  168/206/6  165/205/6  166/204/6  167/203/6

o entity1_brush21
usemtl __TB_empty
f  169/213/1  170/214/1  171/215/1  172/216/1
usemtl __TB_empty
f  173/217/2  171/218/2  170/219/2  174/220/2
usemtl __TB_empty
f  174/221/3  170/211/3  169/212/3  175/222/3
usemtl __TB_empty
f  176/222/4  172/212/4  171/211/4  173/221/4
usemtl __TB_empty
f  175/220/5  169/219/5  172/218/5  176/217/5
usemtl __TB_empty
f  176/216/6  173/215/6  174/214/6  175/213/6

o entity1_brush22
usemtl __TB_empty
f  177/223/1  178/224/1  179/225/1  180/226/1
usemtl __TB_empty
f  181/227/2  179/228/2  178/229/2  182/230/2
usemtl __TB_empty
f  182/231/3  178/221/3  177/222/3  183/232/3
usemtl __TB_empty
f  184/232/4  180/222/4  179/221/4  181/231/4
usemtl __TB_empty
f  183/230/5  177/229/5  180/228/5  184/227/5
usemtl __TB_empty
f  184/226/6  181/225/6  182/224/6  183/223/6

o entity1_brush23
usemtl __TB_empty
f  185/233/1  186/234/1  187/235/1  188/236/1
usemtl __TB_empty
f  189/237/2  187/238/2  186/239/2  190/240/2
usemtl __TB_empty
f  190/241/3  186/231/3  185/232/3  191/242/3
usemtl __TB_empty
f  192/242/4  188/232/4  187/231/4  189/241/4
usemtl __TB_empty
f  191/240/5  185/239/5  188/238/5  192/237/5
usemtl __TB_empty
f  192/236/6  189/235/6  190/234/6  191/233/6

o entity1_brush24
usemtl __TB_empty
f  193/243/1  194/244/1  195/245/1  196/246/1
usemtl __TB_empty
f  197/247/2  195/248/2  194/249/2  198/250/2
usemtl __TB_empty
f  198/251/3  194/241/3  193/242/3  199/252/3
usemtl __TB_empty
f  200/252/4  196/242/4  195/241/4  197/251/4
usemtl __TB_empty
f  199/250/5  193/249/5  196/248/5  200/247/5
usemtl __TB_empty
f  200/246/6  197/245/6  198/244/6  199/243/6

o entity1_brush25
usemtl __TB_empty
f  201/253/1  202/254/1  203/255/1  204/256/1
usemtl __TB_empty
f  205/257/2  203/258/2  202/259/2  206/260/2
usemtl __TB_empty
f  206/261/3  202/251/3  201/252/3  207/262/3
usemtl __TB_empty
f  208/262/4  204/252/4  203/251/4  205/261/4
usemtl __TB_empty
f  207/260/5  201/259/5  204/258/5  208/257/5
usemtl __TB_empty
f  208/256/6  205/255/6  206/254/6  207/253/6

o entity1_brush26
usemtl __TB_empty
f  209/53/1  210/54/1  211/55/1  212/56/1
usemtl __TB_empty
f  213/263/2  211/264/2  210/265/2  214/266/2
usemtl __TB_empty
f  214/267/3  210/261/3  209/262/3  215/268/3
usemtl __TB_empty
f  216/268/4  212/262/4  211/261/4  213/267/4
usemtl __TB_empty
f  215/266/5  209/265/5  212/264/5  216/263/5
usemtl __TB_empty
f  216/56/6  213/55/6  214/54/6  215/53/6

o entity1_brush27
usemtl __TB_empty
f  217/43/1  218/44/1  219/45/1  220/46/1
usemtl __TB_empty
f  221/269/2  219/270/2  218/271/2  222/272/2
usemtl __TB_empty
f  222/273/3  218/267/3  217/268/3  223/274/3
usemtl __TB_empty
f  224/274/4  220/268/4  219/267/4  221/273/4
usemtl __TB_empty
f  223/272/5  217/271/5  220/270/5  224/269/5
usemtl __TB_empty
f  224/46/6  221/45/6  222/44/6  223/43/6

o entity1_brush28
usemtl __TB_empty
f  225/33/1  226/34/1  227/35/1  228/36/1
usemtl __TB_empty
f  229/275/2  227/276/2  226/277/2  230/278/2
usemtl __TB_empty
f  230/279/3  226/273/3  225/274/3  231/280/3
usemtl __TB_empty
f  232/280/4  228/274/4  227/273/4  229/279/4
usemtl __TB_empty
f  231/278/5  225/277/5  228/276/5  232/275/5
usemtl __TB_empty
f  232/36/6  229/35/6  230/34/6  231/33/6

o entity1_brush29
usemtl __TB_empty
f  233/23/1  234/24/1  235/25/1  236/26/1
usemtl __TB_empty
f  237/281/2  235/282/2  234/283/2  238/284/2
usemtl __TB_empty
f  238/285/3  234/279/3  233/280/3  239/286/3
usemtl __TB_empty
f  240/286/4  236/280/4  235/279/4  237/285/4
usemtl __TB_empty
f  239/284/5  233/283/5  236/282/5  240/281/5
usemtl __TB_empty
f  240/26/6  237/25/6  238/24/6  239/23/6

o entity1_brush30
usemtl __TB_empty
f  241/13/1  242/14/1  243/15/1  244/16/1
usemtl __TB_empty
f  245/287/2  243/288/2  242/289/2  246/290/2
usemtl __TB_empty
f  246/291/3  242/285/3  241/286/3  247/292/3
usemtl __TB_empty
f  248/292/4  244/286/4  243/285/4  245/291/4
usemtl __TB_empty
f  247/290/5  241/289/5  244/288/5  248/287/5
usemtl __TB_empty
f  248/16/6  245/15/6  246/14/6  247/13/6

o entity1_brush31
usemtl __TB_empty
f  249/1/1  250/2/1  251/3/1  252/4/1
usemtl __TB_empty
f  253/293/2  251/294/2  250/295/2  254/296/2
usemtl __TB_empty
f  254/297/3  250/291/3  249/292/3  255/298/3
usemtl __TB_empty
f  256/298/4  252/292/4  251/291/4  253/297/4
usemtl __TB_empty
f  255/296/5  249/295/5  252/294/5  256/293/5
usemtl __TB_empty
f  256/4/6  253/3/6  254/2/6  255/1/6

o entity1_brush32
usemtl __TB_empty
f  257/2/1  258/299/1  259/300/1  260/3/1
usemtl __TB_empty
f  261/301/2  259/6/2  258/7/2  262/302/2
usemtl __TB_empty
f  262/303/3  258/304/3  257/10/3  263/41/3
usemtl __TB_empty
f  264/41/4  260/10/4  259/304/4  261/303/4
usemtl __TB_empty
f  263/302/5  257/7/5  260/6/5  264/301/5
usemtl __TB_empty
f  264/3/6  261/300/6  262/299/6  263/2/6

